<!DOCTYPE svg PUBLIC "-//W3C//DTD SVG 1.1//EN" "http://www.w3.org/Graphics/SVG/1.1/DTD/svg11.dtd">

<!-- Uploaded to: SVG Repo, www.svgrepo.com, Transformed by: SVG Repo Mixer Tools -->
<svg width="40px" height="40px" viewBox="0 0 48.00 48.00" version="1.1" xmlns="http://www.w3.org/2000/svg" xmlns:xlink="http://www.w3.org/1999/xlink" fill="#000000" transform="rotate(45)matrix(-1, 0, 0, 1, 0, 0)">
<g id="SVGRepo_bgCarrier" stroke-width="0"/>
<g id="SVGRepo_tracerCarrier" stroke-linecap="round" stroke-linejoin="round"/>
<g id="SVGRepo_iconCarrier"> <!-- Uploaded to: SVG Repo, www.svgrepo.com, Transformed by: SVG Repo Mixer Tools --> <title>ic_fluent_pause_48_filled</title> <desc>Created with Sketch.</desc> <g id="ðŸ”-Product-Icons" stroke="none" stroke-width="1" fill="none" fill-rule="evenodd"> <g id="ic_fluent_pause_48_filled" fill="#212121" fill-rule="nonzero"> <path d="M17.75,7 C19.5449254,7 21,8.45507456 21,10.25 L21,37.75 C21,39.5449254 19.5449254,41 17.75,41 L12.25,41 C10.4550746,41 9,39.5449254 9,37.75 L9,10.25 C9,8.45507456 10.4550746,7 12.25,7 L17.75,7 Z M35.75,7 C37.5449254,7 39,8.45507456 39,10.25 L39,37.75 C39,39.5449254 37.5449254,41 35.75,41 L30.25,41 C28.4550746,41 27,39.5449254 27,37.75 L27,10.25 C27,8.45507456 28.4550746,7 30.25,7 L35.75,7 Z" id="ðŸŽ¨-Color"> </path> </g> </g> </g>
</svg>